<?xml version="1.0" encoding="UTF-8" standalone="no"?><svg xmlns="http://www.w3.org/2000/svg" xmlns:xlink="http://www.w3.org/1999/xlink" contentStyleType="text/css" height="1246px" preserveAspectRatio="none" style="width:2147px;height:1246px;background:#FFFFFF;" version="1.1" viewBox="0 0 2147 1246" width="2147px" zoomAndPan="magnify"><defs/><g><rect fill="none" height="104.5313" style="stroke:#000000;stroke-width:1.5;" width="1530.5" x="10" y="302.2266"/><rect fill="none" height="450.9922" style="stroke:#000000;stroke-width:1.5;" width="2042" x="99" y="537.2891"/><rect fill="none" height="146.6641" style="stroke:#000000;stroke-width:1.5;" width="1154.5" x="99" y="1002.2813"/><line style="stroke:#181818;stroke-width:0.5;stroke-dasharray:5.0,5.0;" x1="59" x2="59" y1="81.2969" y2="1165.9453"/><line style="stroke:#181818;stroke-width:0.5;stroke-dasharray:5.0,5.0;" x1="192" x2="192" y1="81.2969" y2="1165.9453"/><line style="stroke:#181818;stroke-width:0.5;stroke-dasharray:5.0,5.0;" x1="383" x2="383" y1="81.2969" y2="1165.9453"/><line style="stroke:#181818;stroke-width:0.5;stroke-dasharray:5.0,5.0;" x1="737.5" x2="737.5" y1="81.2969" y2="1165.9453"/><line style="stroke:#181818;stroke-width:0.5;stroke-dasharray:5.0,5.0;" x1="1033" x2="1033" y1="81.2969" y2="1165.9453"/><line style="stroke:#181818;stroke-width:0.5;stroke-dasharray:5.0,5.0;" x1="1422.5" x2="1422.5" y1="81.2969" y2="1165.9453"/><line style="stroke:#181818;stroke-width:0.5;stroke-dasharray:5.0,5.0;" x1="1663.5" x2="1663.5" y1="81.2969" y2="1165.9453"/><line style="stroke:#181818;stroke-width:0.5;stroke-dasharray:5.0,5.0;" x1="1818.5" x2="1818.5" y1="81.2969" y2="1165.9453"/><line style="stroke:#181818;stroke-width:0.5;stroke-dasharray:5.0,5.0;" x1="1871.5" x2="1871.5" y1="81.2969" y2="1165.9453"/><line style="stroke:#181818;stroke-width:0.5;stroke-dasharray:5.0,5.0;" x1="2043" x2="2043" y1="81.2969" y2="1165.9453"/><text fill="#000000" font-family="sans-serif" font-size="14" lengthAdjust="spacing" textLength="73" x="20" y="77.9951">Оператор</text><ellipse cx="59.5" cy="13.5" fill="#E2E2F0" rx="8" ry="8" style="stroke:#181818;stroke-width:0.5;"/><path d="M59.5,21.5 L59.5,48.5 M46.5,29.5 L72.5,29.5 M59.5,48.5 L46.5,63.5 M59.5,48.5 L72.5,63.5 " fill="none" style="stroke:#181818;stroke-width:0.5;"/><text fill="#000000" font-family="sans-serif" font-size="14" lengthAdjust="spacing" textLength="73" x="20" y="1177.9404">Оператор</text><ellipse cx="59.5" cy="1189.7422" fill="#E2E2F0" rx="8" ry="8" style="stroke:#181818;stroke-width:0.5;"/><path d="M59.5,1197.7422 L59.5,1224.7422 M46.5,1205.7422 L72.5,1205.7422 M59.5,1224.7422 L46.5,1239.7422 M59.5,1224.7422 L72.5,1239.7422 " fill="none" style="stroke:#181818;stroke-width:0.5;"/><rect fill="#E2E2F0" height="30.2969" rx="2.5" ry="2.5" style="stroke:#181818;stroke-width:0.5;" width="167" x="109" y="50"/><text fill="#000000" font-family="sans-serif" font-size="14" lengthAdjust="spacing" textLength="153" x="116" y="69.9951">Управляющий центр</text><rect fill="#E2E2F0" height="30.2969" rx="2.5" ry="2.5" style="stroke:#181818;stroke-width:0.5;" width="167" x="109" y="1164.9453"/><text fill="#000000" font-family="sans-serif" font-size="14" lengthAdjust="spacing" textLength="153" x="116" y="1184.9404">Управляющий центр</text><rect fill="#E2E2F0" height="30.2969" rx="2.5" ry="2.5" style="stroke:#181818;stroke-width:0.5;" width="195" x="286" y="50"/><text fill="#000000" font-family="sans-serif" font-size="14" lengthAdjust="spacing" textLength="181" x="293" y="69.9951">Мобильное приложение</text><rect fill="#E2E2F0" height="30.2969" rx="2.5" ry="2.5" style="stroke:#181818;stroke-width:0.5;" width="195" x="286" y="1164.9453"/><text fill="#000000" font-family="sans-serif" font-size="14" lengthAdjust="spacing" textLength="181" x="293" y="1184.9404">Мобильное приложение</text><rect fill="#E2E2F0" height="30.2969" rx="2.5" ry="2.5" style="stroke:#181818;stroke-width:0.5;" width="114" x="680.5" y="50"/><text fill="#000000" font-family="sans-serif" font-size="14" lengthAdjust="spacing" textLength="100" x="687.5" y="69.9951">Модуль связи</text><rect fill="#E2E2F0" height="30.2969" rx="2.5" ry="2.5" style="stroke:#181818;stroke-width:0.5;" width="114" x="680.5" y="1164.9453"/><text fill="#000000" font-family="sans-serif" font-size="14" lengthAdjust="spacing" textLength="100" x="687.5" y="1184.9404">Модуль связи</text><rect fill="#E2E2F0" height="30.2969" rx="2.5" ry="2.5" style="stroke:#181818;stroke-width:0.5;" width="169" x="949" y="50"/><text fill="#000000" font-family="sans-serif" font-size="14" lengthAdjust="spacing" textLength="155" x="956" y="69.9951">Управление полетом</text><rect fill="#E2E2F0" height="30.2969" rx="2.5" ry="2.5" style="stroke:#181818;stroke-width:0.5;" width="169" x="949" y="1164.9453"/><text fill="#000000" font-family="sans-serif" font-size="14" lengthAdjust="spacing" textLength="155" x="956" y="1184.9404">Управление полетом</text><rect fill="#E2E2F0" height="30.2969" rx="2.5" ry="2.5" style="stroke:#181818;stroke-width:0.5;" width="216" x="1314.5" y="50"/><text fill="#000000" font-family="sans-serif" font-size="14" lengthAdjust="spacing" textLength="202" x="1321.5" y="69.9951">Контроль состояния дрона</text><rect fill="#E2E2F0" height="30.2969" rx="2.5" ry="2.5" style="stroke:#181818;stroke-width:0.5;" width="216" x="1314.5" y="1164.9453"/><text fill="#000000" font-family="sans-serif" font-size="14" lengthAdjust="spacing" textLength="202" x="1321.5" y="1184.9404">Контроль состояния дрона</text><rect fill="#E2E2F0" height="30.2969" rx="2.5" ry="2.5" style="stroke:#181818;stroke-width:0.5;" width="246" x="1540.5" y="50"/><text fill="#000000" font-family="sans-serif" font-size="14" lengthAdjust="spacing" textLength="232" x="1547.5" y="69.9951">Управление распрыскивателем</text><rect fill="#E2E2F0" height="30.2969" rx="2.5" ry="2.5" style="stroke:#181818;stroke-width:0.5;" width="246" x="1540.5" y="1164.9453"/><text fill="#000000" font-family="sans-serif" font-size="14" lengthAdjust="spacing" textLength="232" x="1547.5" y="1184.9404">Управление распрыскивателем</text><rect fill="#E2E2F0" height="30.2969" rx="2.5" ry="2.5" style="stroke:#181818;stroke-width:0.5;" width="44" x="1796.5" y="50"/><text fill="#000000" font-family="sans-serif" font-size="14" lengthAdjust="spacing" textLength="30" x="1803.5" y="69.9951">ИНС</text><rect fill="#E2E2F0" height="30.2969" rx="2.5" ry="2.5" style="stroke:#181818;stroke-width:0.5;" width="44" x="1796.5" y="1164.9453"/><text fill="#000000" font-family="sans-serif" font-size="14" lengthAdjust="spacing" textLength="30" x="1803.5" y="1184.9404">ИНС</text><rect fill="#E2E2F0" height="30.2969" rx="2.5" ry="2.5" style="stroke:#181818;stroke-width:0.5;" width="43" x="1850.5" y="50"/><text fill="#000000" font-family="sans-serif" font-size="14" lengthAdjust="spacing" textLength="29" x="1857.5" y="69.9951">GPS</text><rect fill="#E2E2F0" height="30.2969" rx="2.5" ry="2.5" style="stroke:#181818;stroke-width:0.5;" width="43" x="1850.5" y="1164.9453"/><text fill="#000000" font-family="sans-serif" font-size="14" lengthAdjust="spacing" textLength="29" x="1857.5" y="1184.9404">GPS</text><rect fill="#E2E2F0" height="30.2969" rx="2.5" ry="2.5" style="stroke:#181818;stroke-width:0.5;" width="176" x="1955" y="50"/><text fill="#000000" font-family="sans-serif" font-size="14" lengthAdjust="spacing" textLength="162" x="1962" y="69.9951">Контроль обстановки</text><rect fill="#E2E2F0" height="30.2969" rx="2.5" ry="2.5" style="stroke:#181818;stroke-width:0.5;" width="176" x="1955" y="1164.9453"/><text fill="#000000" font-family="sans-serif" font-size="14" lengthAdjust="spacing" textLength="162" x="1962" y="1184.9404">Контроль обстановки</text><polygon fill="#181818" points="1410.5,108.4297,1420.5,112.4297,1410.5,116.4297,1414.5,112.4297" style="stroke:#181818;stroke-width:1.0;"/><line style="stroke:#181818;stroke-width:1.0;" x1="59.5" x2="1416.5" y1="112.4297" y2="112.4297"/><text fill="#000000" font-family="sans-serif" font-size="13" lengthAdjust="spacing" textLength="197" x="66.5" y="107.3638">Включение и инициализация</text><polygon fill="#181818" points="1044.5,137.5625,1034.5,141.5625,1044.5,145.5625,1040.5,141.5625" style="stroke:#181818;stroke-width:1.0;"/><line style="stroke:#181818;stroke-width:1.0;stroke-dasharray:2.0,2.0;" x1="1038.5" x2="1421.5" y1="141.5625" y2="141.5625"/><text fill="#000000" font-family="sans-serif" font-size="13" lengthAdjust="spacing" textLength="252" x="1050.5" y="136.4966">Инициализация управления полетом</text><polygon fill="#181818" points="1860,166.6953,1870,170.6953,1860,174.6953,1864,170.6953" style="stroke:#181818;stroke-width:1.0;"/><line style="stroke:#181818;stroke-width:1.0;" x1="1422.5" x2="1866" y1="170.6953" y2="170.6953"/><text fill="#000000" font-family="sans-serif" font-size="13" lengthAdjust="spacing" textLength="190" x="1429.5" y="165.6294">Запрос текущих координат</text><polygon fill="#181818" points="1433.5,195.8281,1423.5,199.8281,1433.5,203.8281,1429.5,199.8281" style="stroke:#181818;stroke-width:1.0;"/><line style="stroke:#181818;stroke-width:1.0;stroke-dasharray:2.0,2.0;" x1="1427.5" x2="1871" y1="199.8281" y2="199.8281"/><text fill="#000000" font-family="sans-serif" font-size="13" lengthAdjust="spacing" textLength="147" x="1439.5" y="194.7622">Текущие координаты</text><polygon fill="#181818" points="748.5,224.9609,738.5,228.9609,748.5,232.9609,744.5,228.9609" style="stroke:#181818;stroke-width:1.0;"/><line style="stroke:#181818;stroke-width:1.0;stroke-dasharray:2.0,2.0;" x1="742.5" x2="1421.5" y1="228.9609" y2="228.9609"/><text fill="#000000" font-family="sans-serif" font-size="13" lengthAdjust="spacing" textLength="337" x="754.5" y="223.895">Отчет о состоянии дрона и его местоположение</text><polygon fill="#181818" points="394.5,254.0938,384.5,258.0938,394.5,262.0938,390.5,258.0938" style="stroke:#181818;stroke-width:1.0;"/><line style="stroke:#181818;stroke-width:1.0;" x1="388.5" x2="736.5" y1="258.0938" y2="258.0938"/><text fill="#000000" font-family="sans-serif" font-size="13" lengthAdjust="spacing" textLength="330" x="400.5" y="253.0278">Отчет о состоянии дрона и его метоположение</text><polygon fill="#181818" points="394.5,283.2266,384.5,287.2266,394.5,291.2266,390.5,287.2266" style="stroke:#181818;stroke-width:1.0;"/><line style="stroke:#181818;stroke-width:1.0;" x1="388.5" x2="736.5" y1="287.2266" y2="287.2266"/><text fill="#000000" font-family="sans-serif" font-size="13" lengthAdjust="spacing" textLength="330" x="400.5" y="282.1606">Отчет о состоянии дрона и его метоположение</text><path d="M10,302.2266 L240,302.2266 L240,309.3594 L230,319.3594 L10,319.3594 L10,302.2266 " fill="#EEEEEE" style="stroke:#000000;stroke-width:1.5;"/><rect fill="none" height="104.5313" style="stroke:#000000;stroke-width:1.5;" width="1530.5" x="10" y="302.2266"/><text fill="#000000" font-family="sans-serif" font-size="13" font-weight="bold" lengthAdjust="spacing" textLength="185" x="25" y="315.2935">Ошибка инициализации</text><polygon fill="#181818" points="70.5,336.4922,60.5,340.4922,70.5,344.4922,66.5,340.4922" style="stroke:#181818;stroke-width:1.0;"/><line style="stroke:#181818;stroke-width:1.0;stroke-dasharray:2.0,2.0;" x1="64.5" x2="1421.5" y1="340.4922" y2="340.4922"/><text fill="#000000" font-family="sans-serif" font-size="13" lengthAdjust="spacing" textLength="242" x="76.5" y="335.4263">Индикация о неисправности дрона</text><polygon fill="#181818" points="748.5,365.625,738.5,369.625,748.5,373.625,744.5,369.625" style="stroke:#181818;stroke-width:1.0;"/><line style="stroke:#181818;stroke-width:1.0;stroke-dasharray:2.0,2.0;" x1="742.5" x2="1421.5" y1="369.625" y2="369.625"/><text fill="#000000" font-family="sans-serif" font-size="13" lengthAdjust="spacing" textLength="119" x="754.5" y="364.5591">Отчет об ошибке</text><polygon fill="#181818" points="394.5,394.7578,384.5,398.7578,394.5,402.7578,390.5,398.7578" style="stroke:#181818;stroke-width:1.0;"/><line style="stroke:#181818;stroke-width:1.0;" x1="388.5" x2="736.5" y1="398.7578" y2="398.7578"/><text fill="#000000" font-family="sans-serif" font-size="13" lengthAdjust="spacing" textLength="119" x="400.5" y="393.6919">Отчет об ошибке</text><polygon fill="#181818" points="725.5,430.8906,735.5,434.8906,725.5,438.8906,729.5,434.8906" style="stroke:#181818;stroke-width:1.0;"/><line style="stroke:#181818;stroke-width:1.0;" x1="383.5" x2="731.5" y1="434.8906" y2="434.8906"/><text fill="#000000" font-family="sans-serif" font-size="13" lengthAdjust="spacing" textLength="93" x="390.5" y="429.8247">Запуск дрона</text><polygon fill="#181818" points="203.5,460.0234,193.5,464.0234,203.5,468.0234,199.5,464.0234" style="stroke:#181818;stroke-width:1.0;"/><line style="stroke:#181818;stroke-width:1.0;" x1="197.5" x2="736.5" y1="464.0234" y2="464.0234"/><text fill="#000000" font-family="sans-serif" font-size="13" lengthAdjust="spacing" textLength="185" x="209.5" y="458.9575">Запрос полетного задания</text><polygon fill="#181818" points="725.5,489.1563,735.5,493.1563,725.5,497.1563,729.5,493.1563" style="stroke:#181818;stroke-width:1.0;"/><line style="stroke:#181818;stroke-width:1.0;stroke-dasharray:2.0,2.0;" x1="192.5" x2="731.5" y1="493.1563" y2="493.1563"/><text fill="#000000" font-family="sans-serif" font-size="13" lengthAdjust="spacing" textLength="127" x="199.5" y="488.0903">Полетное задание</text><polygon fill="#181818" points="394.5,518.2891,384.5,522.2891,394.5,526.2891,390.5,522.2891" style="stroke:#181818;stroke-width:1.0;"/><line style="stroke:#181818;stroke-width:1.0;stroke-dasharray:2.0,2.0;" x1="388.5" x2="736.5" y1="522.2891" y2="522.2891"/><text fill="#000000" font-family="sans-serif" font-size="13" lengthAdjust="spacing" textLength="325" x="400.5" y="517.2231">Полетное задание, сообщение о начале миссии</text><path d="M99,537.2891 L391,537.2891 L391,544.4219 L381,554.4219 L99,554.4219 L99,537.2891 " fill="#EEEEEE" style="stroke:#000000;stroke-width:1.5;"/><rect fill="none" height="450.9922" style="stroke:#000000;stroke-width:1.5;" width="2042" x="99" y="537.2891"/><text fill="#000000" font-family="sans-serif" font-size="13" font-weight="bold" lengthAdjust="spacing" textLength="247" x="114" y="550.356">Выполнение полетного задания</text><polygon fill="#181818" points="1044.5,571.5547,1034.5,575.5547,1044.5,579.5547,1040.5,575.5547" style="stroke:#181818;stroke-width:1.0;"/><line style="stroke:#181818;stroke-width:1.0;" x1="1038.5" x2="1871" y1="575.5547" y2="575.5547"/><text fill="#000000" font-family="sans-serif" font-size="13" lengthAdjust="spacing" textLength="147" x="1050.5" y="570.4888">Текущие координаты</text><polygon fill="#181818" points="748.5,600.6875,738.5,604.6875,748.5,608.6875,744.5,604.6875" style="stroke:#181818;stroke-width:1.0;"/><line style="stroke:#181818;stroke-width:1.0;" x1="742.5" x2="1032.5" y1="604.6875" y2="604.6875"/><text fill="#000000" font-family="sans-serif" font-size="13" lengthAdjust="spacing" textLength="147" x="754.5" y="599.6216">Текущие координаты</text><polygon fill="#181818" points="394.5,629.8203,384.5,633.8203,394.5,637.8203,390.5,633.8203" style="stroke:#181818;stroke-width:1.0;"/><line style="stroke:#181818;stroke-width:1.0;" x1="388.5" x2="736.5" y1="633.8203" y2="633.8203"/><text fill="#000000" font-family="sans-serif" font-size="13" lengthAdjust="spacing" textLength="147" x="400.5" y="628.7544">Текущие координаты</text><polygon fill="#181818" points="203.5,658.9531,193.5,662.9531,203.5,666.9531,199.5,662.9531" style="stroke:#181818;stroke-width:1.0;"/><line style="stroke:#181818;stroke-width:1.0;" x1="197.5" x2="736.5" y1="662.9531" y2="662.9531"/><text fill="#000000" font-family="sans-serif" font-size="13" lengthAdjust="spacing" textLength="147" x="209.5" y="657.8872">Текущие координаты</text><polygon fill="#181818" points="2031,688.0859,2041,692.0859,2031,696.0859,2035,692.0859" style="stroke:#181818;stroke-width:1.0;"/><line style="stroke:#181818;stroke-width:1.0;" x1="1872" x2="2037" y1="692.0859" y2="692.0859"/><text fill="#000000" font-family="sans-serif" font-size="13" lengthAdjust="spacing" textLength="147" x="1879" y="687.02">Текущие координаты</text><line style="stroke:#181818;stroke-width:1.0;" x1="1033.5" x2="1075.5" y1="721.2188" y2="721.2188"/><line style="stroke:#181818;stroke-width:1.0;" x1="1075.5" x2="1075.5" y1="721.2188" y2="734.2188"/><line style="stroke:#181818;stroke-width:1.0;" x1="1034.5" x2="1075.5" y1="734.2188" y2="734.2188"/><polygon fill="#181818" points="1044.5,730.2188,1034.5,734.2188,1044.5,738.2188,1040.5,734.2188" style="stroke:#181818;stroke-width:1.0;"/><text fill="#000000" font-family="sans-serif" font-size="13" lengthAdjust="spacing" textLength="375" x="1040.5" y="716.1528">Перемещение , достижение района выполнения работ</text><polygon fill="#181818" points="1651.5,759.3516,1661.5,763.3516,1651.5,767.3516,1655.5,763.3516" style="stroke:#181818;stroke-width:1.0;"/><line style="stroke:#181818;stroke-width:1.0;" x1="1033.5" x2="1657.5" y1="763.3516" y2="763.3516"/><text fill="#000000" font-family="sans-serif" font-size="13" lengthAdjust="spacing" textLength="200" x="1040.5" y="758.2856">Активация распрыскивателя</text><polygon fill="#181818" points="748.5,788.4844,738.5,792.4844,748.5,796.4844,744.5,792.4844" style="stroke:#181818;stroke-width:1.0;"/><line style="stroke:#181818;stroke-width:1.0;" x1="742.5" x2="1032.5" y1="792.4844" y2="792.4844"/><text fill="#000000" font-family="sans-serif" font-size="13" lengthAdjust="spacing" textLength="272" x="754.5" y="787.4185">Сообщение о начале выполнения работ</text><polygon fill="#181818" points="394.5,817.6172,384.5,821.6172,394.5,825.6172,390.5,821.6172" style="stroke:#181818;stroke-width:1.0;"/><line style="stroke:#181818;stroke-width:1.0;" x1="388.5" x2="736.5" y1="821.6172" y2="821.6172"/><text fill="#000000" font-family="sans-serif" font-size="13" lengthAdjust="spacing" textLength="272" x="400.5" y="816.5513">Сообщение о начале выполнения работ</text><line style="stroke:#181818;stroke-width:1.0;" x1="1033.5" x2="1075.5" y1="850.75" y2="850.75"/><line style="stroke:#181818;stroke-width:1.0;" x1="1075.5" x2="1075.5" y1="850.75" y2="863.75"/><line style="stroke:#181818;stroke-width:1.0;" x1="1034.5" x2="1075.5" y1="863.75" y2="863.75"/><polygon fill="#181818" points="1044.5,859.75,1034.5,863.75,1044.5,867.75,1040.5,863.75" style="stroke:#181818;stroke-width:1.0;"/><text fill="#000000" font-family="sans-serif" font-size="13" lengthAdjust="spacing" textLength="144" x="1040.5" y="845.6841">Выполнение задания</text><polygon fill="#181818" points="1651.5,888.8828,1661.5,892.8828,1651.5,896.8828,1655.5,892.8828" style="stroke:#181818;stroke-width:1.0;"/><line style="stroke:#181818;stroke-width:1.0;" x1="1033.5" x2="1657.5" y1="892.8828" y2="892.8828"/><text fill="#000000" font-family="sans-serif" font-size="13" lengthAdjust="spacing" textLength="211" x="1040.5" y="887.8169">Выключение распрыскивателя</text><polygon fill="#181818" points="748.5,918.0156,738.5,922.0156,748.5,926.0156,744.5,922.0156" style="stroke:#181818;stroke-width:1.0;"/><line style="stroke:#181818;stroke-width:1.0;" x1="742.5" x2="1032.5" y1="922.0156" y2="922.0156"/><text fill="#000000" font-family="sans-serif" font-size="13" lengthAdjust="spacing" textLength="221" x="754.5" y="916.9497">Сообщение о заверщении работ</text><polygon fill="#181818" points="394.5,947.1484,384.5,951.1484,394.5,955.1484,390.5,951.1484" style="stroke:#181818;stroke-width:1.0;"/><line style="stroke:#181818;stroke-width:1.0;" x1="388.5" x2="736.5" y1="951.1484" y2="951.1484"/><text fill="#000000" font-family="sans-serif" font-size="13" lengthAdjust="spacing" textLength="221" x="400.5" y="946.0825">Сообщение о заверщении работ</text><polygon fill="#181818" points="203.5,976.2813,193.5,980.2813,203.5,984.2813,199.5,980.2813" style="stroke:#181818;stroke-width:1.0;"/><line style="stroke:#181818;stroke-width:1.0;" x1="197.5" x2="736.5" y1="980.2813" y2="980.2813"/><text fill="#000000" font-family="sans-serif" font-size="13" lengthAdjust="spacing" textLength="221" x="209.5" y="975.2153">Сообщение о заверщении работ</text><path d="M99,1002.2813 L298,1002.2813 L298,1009.4141 L288,1019.4141 L99,1019.4141 L99,1002.2813 " fill="#EEEEEE" style="stroke:#000000;stroke-width:1.5;"/><rect fill="none" height="146.6641" style="stroke:#000000;stroke-width:1.5;" width="1154.5" x="99" y="1002.2813"/><text fill="#000000" font-family="sans-serif" font-size="13" font-weight="bold" lengthAdjust="spacing" textLength="154" x="114" y="1015.3481">Заверщение миссии</text><line style="stroke:#181818;stroke-width:1.0;" x1="1033.5" x2="1075.5" y1="1040.5469" y2="1040.5469"/><line style="stroke:#181818;stroke-width:1.0;" x1="1075.5" x2="1075.5" y1="1040.5469" y2="1053.5469"/><line style="stroke:#181818;stroke-width:1.0;" x1="1034.5" x2="1075.5" y1="1053.5469" y2="1053.5469"/><polygon fill="#181818" points="1044.5,1049.5469,1034.5,1053.5469,1044.5,1057.5469,1040.5,1053.5469" style="stroke:#181818;stroke-width:1.0;"/><text fill="#000000" font-family="sans-serif" font-size="13" lengthAdjust="spacing" textLength="201" x="1040.5" y="1035.481">Возвращение в точку старта</text><polygon fill="#181818" points="748.5,1078.6797,738.5,1082.6797,748.5,1086.6797,744.5,1082.6797" style="stroke:#181818;stroke-width:1.0;"/><line style="stroke:#181818;stroke-width:1.0;" x1="742.5" x2="1032.5" y1="1082.6797" y2="1082.6797"/><text fill="#000000" font-family="sans-serif" font-size="13" lengthAdjust="spacing" textLength="100" x="754.5" y="1077.6138">Отчет о мисии</text><polygon fill="#181818" points="394.5,1107.8125,384.5,1111.8125,394.5,1115.8125,390.5,1111.8125" style="stroke:#181818;stroke-width:1.0;"/><line style="stroke:#181818;stroke-width:1.0;" x1="388.5" x2="736.5" y1="1111.8125" y2="1111.8125"/><text fill="#000000" font-family="sans-serif" font-size="13" lengthAdjust="spacing" textLength="100" x="400.5" y="1106.7466">Отчет о мисии</text><polygon fill="#181818" points="203.5,1136.9453,193.5,1140.9453,203.5,1144.9453,199.5,1140.9453" style="stroke:#181818;stroke-width:1.0;"/><line style="stroke:#181818;stroke-width:1.0;" x1="197.5" x2="736.5" y1="1140.9453" y2="1140.9453"/><text fill="#000000" font-family="sans-serif" font-size="13" lengthAdjust="spacing" textLength="100" x="209.5" y="1135.8794">Отчет о мисии</text><!--MD5=[e18b6813a77d5f963c1fcd0b920c8814]
@startuml
actor "Оператор" as Operator
participant "Управляющий центр" as Center
participant "Мобильное приложение" as App 
participant "Модуль связи" as Communication 
participant "Управление полетом" as FlightController 
participant "Контроль состояния дрона" as DroneStateControl 
participant "Управление распрыскивателем" as Spray 
participant "ИНС" as Internal 
participant "GPS" as GPS 
participant "Контроль обстановки" as ExternalControl 
Operator -> DroneStateControl : Включение и инициализация
DroneStateControl - -> FlightController : Инициализация управления полетом
DroneStateControl -> GPS : Запрос текущих координат
GPS - -> DroneStateControl : Текущие координаты
DroneStateControl - -> Communication : Отчет о состоянии дрона и его местоположение
Communication -> App : Отчет о состоянии дрона и его метоположение
Communication -> App : Отчет о состоянии дрона и его метоположение
group Ошибка инициализации
DroneStateControl - -> Operator : Индикация о неисправности дрона
DroneStateControl - -> Communication : Отчет об ошибке
Communication -> App : Отчет об ошибке
end
App -> Communication : Запуск дрона
Communication -> Center : Запрос полетного задания
Center - -> Communication : Полетное задание
Communication - -> App : Полетное задание, сообщение о начале миссии

group Выполнение полетного задания
GPS -> FlightController : Текущие координаты
FlightController -> Communication : Текущие координаты
Communication -> App : Текущие координаты
Communication -> Center : Текущие координаты
GPS -> ExternalControl : Текущие координаты
FlightController -> FlightController : Перемещение , достижение района выполнения работ
FlightController -> Spray : Активация распрыскивателя
FlightController -> Communication : Сообщение о начале выполнения работ
Communication -> App : Сообщение о начале выполнения работ
FlightController -> FlightController : Выполнение задания
FlightController -> Spray : Выключение распрыскивателя
FlightController -> Communication : Сообщение о заверщении работ
Communication -> App : Сообщение о заверщении работ
Communication -> Center : Сообщение о заверщении работ
end

group Заверщение миссии
FlightController -> FlightController : Возвращение в точку старта
FlightController -> Communication : Отчет о мисии
Communication -> App : Отчет о мисии
Communication -> Center : Отчет о мисии
end
@enduml

PlantUML version 1.2022.7(Mon Aug 22 17:01:30 UTC 2022)
(GPL source distribution)
Java Runtime: OpenJDK Runtime Environment
JVM: OpenJDK 64-Bit Server VM
Default Encoding: UTF-8
Language: en
Country: null
--></g></svg>