<?xml version="1.0" encoding="UTF-8" standalone="no"?><svg xmlns="http://www.w3.org/2000/svg" xmlns:xlink="http://www.w3.org/1999/xlink" contentStyleType="text/css" height="2294px" preserveAspectRatio="none" style="width:5178px;height:2294px;background:#FFFFFF;" version="1.1" viewBox="0 0 5178 2294" width="5178px" zoomAndPan="magnify"><defs/><g><rect fill="none" height="408.8594" style="stroke:#000000;stroke-width:1.5;" width="5088.5" x="84" y="659.8203"/><rect fill="none" height="638.7891" style="stroke:#000000;stroke-width:1.5;" width="4747.5" x="84" y="1338.6094"/><rect fill="none" height="204.9297" style="stroke:#000000;stroke-width:1.5;" width="4747.5" x="84" y="1991.3984"/><line style="stroke:#181818;stroke-width:0.5;stroke-dasharray:5.0,5.0;" x1="44" x2="44" y1="81.2969" y2="2213.3281"/><line style="stroke:#181818;stroke-width:0.5;stroke-dasharray:5.0,5.0;" x1="177" x2="177" y1="81.2969" y2="2213.3281"/><line style="stroke:#181818;stroke-width:0.5;stroke-dasharray:5.0,5.0;" x1="925" x2="925" y1="81.2969" y2="2213.3281"/><line style="stroke:#181818;stroke-width:0.5;stroke-dasharray:5.0,5.0;" x1="1286.5" x2="1286.5" y1="81.2969" y2="2213.3281"/><line style="stroke:#181818;stroke-width:0.5;stroke-dasharray:5.0,5.0;" x1="1818.5" x2="1818.5" y1="81.2969" y2="2213.3281"/><line style="stroke:#181818;stroke-width:0.5;stroke-dasharray:5.0,5.0;" x1="1969.5" x2="1969.5" y1="81.2969" y2="2213.3281"/><line style="stroke:#181818;stroke-width:0.5;stroke-dasharray:5.0,5.0;" x1="2196" x2="2196" y1="81.2969" y2="2213.3281"/><line style="stroke:#181818;stroke-width:0.5;stroke-dasharray:5.0,5.0;" x1="2732" x2="2732" y1="81.2969" y2="2213.3281"/><line style="stroke:#181818;stroke-width:0.5;stroke-dasharray:5.0,5.0;" x1="3079.5" x2="3079.5" y1="81.2969" y2="2213.3281"/><line style="stroke:#181818;stroke-width:0.5;stroke-dasharray:5.0,5.0;" x1="3294" x2="3294" y1="81.2969" y2="2213.3281"/><line style="stroke:#181818;stroke-width:0.5;stroke-dasharray:5.0,5.0;" x1="3369" x2="3369" y1="81.2969" y2="2213.3281"/><line style="stroke:#181818;stroke-width:0.5;stroke-dasharray:5.0,5.0;" x1="3561.5" x2="3561.5" y1="81.2969" y2="2213.3281"/><line style="stroke:#181818;stroke-width:0.5;stroke-dasharray:5.0,5.0;" x1="3855.5" x2="3855.5" y1="81.2969" y2="2213.3281"/><line style="stroke:#181818;stroke-width:0.5;stroke-dasharray:5.0,5.0;" x1="4200.5" x2="4200.5" y1="81.2969" y2="2213.3281"/><line style="stroke:#181818;stroke-width:0.5;stroke-dasharray:5.0,5.0;" x1="4435.5" x2="4435.5" y1="81.2969" y2="2213.3281"/><line style="stroke:#181818;stroke-width:0.5;stroke-dasharray:5.0,5.0;" x1="4604.5" x2="4604.5" y1="81.2969" y2="2213.3281"/><line style="stroke:#181818;stroke-width:0.5;stroke-dasharray:5.0,5.0;" x1="4734.5" x2="4734.5" y1="81.2969" y2="2213.3281"/><line style="stroke:#181818;stroke-width:0.5;stroke-dasharray:5.0,5.0;" x1="4853.5" x2="4853.5" y1="81.2969" y2="2213.3281"/><line style="stroke:#181818;stroke-width:0.5;stroke-dasharray:5.0,5.0;" x1="5024.5" x2="5024.5" y1="81.2969" y2="2213.3281"/><text fill="#000000" font-family="sans-serif" font-size="14" lengthAdjust="spacing" textLength="73" x="5" y="77.9951">Оператор</text><ellipse cx="44.5" cy="13.5" fill="#E2E2F0" rx="8" ry="8" style="stroke:#181818;stroke-width:0.5;"/><path d="M44.5,21.5 L44.5,48.5 M31.5,29.5 L57.5,29.5 M44.5,48.5 L31.5,63.5 M44.5,48.5 L57.5,63.5 " fill="none" style="stroke:#181818;stroke-width:0.5;"/><text fill="#000000" font-family="sans-serif" font-size="14" lengthAdjust="spacing" textLength="73" x="5" y="2225.3232">Оператор</text><ellipse cx="44.5" cy="2237.125" fill="#E2E2F0" rx="8" ry="8" style="stroke:#181818;stroke-width:0.5;"/><path d="M44.5,2245.125 L44.5,2272.125 M31.5,2253.125 L57.5,2253.125 M44.5,2272.125 L31.5,2287.125 M44.5,2272.125 L57.5,2287.125 " fill="none" style="stroke:#181818;stroke-width:0.5;"/><rect fill="#E2E2F0" height="30.2969" rx="2.5" ry="2.5" style="stroke:#181818;stroke-width:0.5;" width="167" x="94" y="50"/><text fill="#000000" font-family="sans-serif" font-size="14" lengthAdjust="spacing" textLength="153" x="101" y="69.9951">Управляющий центр</text><rect fill="#E2E2F0" height="30.2969" rx="2.5" ry="2.5" style="stroke:#181818;stroke-width:0.5;" width="167" x="94" y="2212.3281"/><text fill="#000000" font-family="sans-serif" font-size="14" lengthAdjust="spacing" textLength="153" x="101" y="2232.3232">Управляющий центр</text><rect fill="#E2E2F0" height="30.2969" rx="2.5" ry="2.5" style="stroke:#181818;stroke-width:0.5;" width="195" x="828" y="50"/><text fill="#000000" font-family="sans-serif" font-size="14" lengthAdjust="spacing" textLength="181" x="835" y="69.9951">Мобильное приложение</text><rect fill="#E2E2F0" height="30.2969" rx="2.5" ry="2.5" style="stroke:#181818;stroke-width:0.5;" width="195" x="828" y="2212.3281"/><text fill="#000000" font-family="sans-serif" font-size="14" lengthAdjust="spacing" textLength="181" x="835" y="2232.3232">Мобильное приложение</text><rect fill="#E2E2F0" height="30.2969" rx="2.5" ry="2.5" style="stroke:#181818;stroke-width:0.5;" width="114" x="1229.5" y="50"/><text fill="#000000" font-family="sans-serif" font-size="14" lengthAdjust="spacing" textLength="100" x="1236.5" y="69.9951">Модуль связи</text><rect fill="#E2E2F0" height="30.2969" rx="2.5" ry="2.5" style="stroke:#181818;stroke-width:0.5;" width="114" x="1229.5" y="2212.3281"/><text fill="#000000" font-family="sans-serif" font-size="14" lengthAdjust="spacing" textLength="100" x="1236.5" y="2232.3232">Модуль связи</text><rect fill="#E2E2F0" height="30.2969" rx="2.5" ry="2.5" style="stroke:#181818;stroke-width:0.5;" width="112" x="1762.5" y="50"/><text fill="#000000" font-family="sans-serif" font-size="14" lengthAdjust="spacing" textLength="98" x="1769.5" y="69.9951">Шифрование</text><rect fill="#E2E2F0" height="30.2969" rx="2.5" ry="2.5" style="stroke:#181818;stroke-width:0.5;" width="112" x="1762.5" y="2212.3281"/><text fill="#000000" font-family="sans-serif" font-size="14" lengthAdjust="spacing" textLength="98" x="1769.5" y="2232.3232">Шифрование</text><rect fill="#E2E2F0" height="30.2969" rx="2.5" ry="2.5" style="stroke:#181818;stroke-width:0.5;" width="158" x="1890.5" y="50"/><text fill="#000000" font-family="sans-serif" font-size="14" lengthAdjust="spacing" textLength="144" x="1897.5" y="69.9951">Оркестратор задач</text><rect fill="#E2E2F0" height="30.2969" rx="2.5" ry="2.5" style="stroke:#181818;stroke-width:0.5;" width="158" x="1890.5" y="2212.3281"/><text fill="#000000" font-family="sans-serif" font-size="14" lengthAdjust="spacing" textLength="144" x="1897.5" y="2232.3232">Оркестратор задач</text><rect fill="#E2E2F0" height="30.2969" rx="2.5" ry="2.5" style="stroke:#181818;stroke-width:0.5;" width="173" x="2110" y="50"/><text fill="#000000" font-family="sans-serif" font-size="14" lengthAdjust="spacing" textLength="159" x="2117" y="69.9951">Расчет перемещения</text><rect fill="#E2E2F0" height="30.2969" rx="2.5" ry="2.5" style="stroke:#181818;stroke-width:0.5;" width="173" x="2110" y="2212.3281"/><text fill="#000000" font-family="sans-serif" font-size="14" lengthAdjust="spacing" textLength="159" x="2117" y="2232.3232">Расчет перемещения</text><rect fill="#E2E2F0" height="30.2969" rx="2.5" ry="2.5" style="stroke:#181818;stroke-width:0.5;" width="119" x="2673" y="50"/><text fill="#000000" font-family="sans-serif" font-size="14" lengthAdjust="spacing" textLength="105" x="2680" y="69.9951">Ограничитель</text><rect fill="#E2E2F0" height="30.2969" rx="2.5" ry="2.5" style="stroke:#181818;stroke-width:0.5;" width="119" x="2673" y="2212.3281"/><text fill="#000000" font-family="sans-serif" font-size="14" lengthAdjust="spacing" textLength="105" x="2680" y="2232.3232">Ограничитель</text><rect fill="#E2E2F0" height="30.2969" rx="2.5" ry="2.5" style="stroke:#181818;stroke-width:0.5;" width="80" x="3039.5" y="50"/><text fill="#000000" font-family="sans-serif" font-size="14" lengthAdjust="spacing" textLength="66" x="3046.5" y="69.9951">Приводы</text><rect fill="#E2E2F0" height="30.2969" rx="2.5" ry="2.5" style="stroke:#181818;stroke-width:0.5;" width="80" x="3039.5" y="2212.3281"/><text fill="#000000" font-family="sans-serif" font-size="14" lengthAdjust="spacing" textLength="66" x="3046.5" y="2232.3232">Приводы</text><rect fill="#E2E2F0" height="30.2969" rx="2.5" ry="2.5" style="stroke:#181818;stroke-width:0.5;" width="43" x="3273" y="50"/><text fill="#000000" font-family="sans-serif" font-size="14" lengthAdjust="spacing" textLength="29" x="3280" y="69.9951">GPS</text><rect fill="#E2E2F0" height="30.2969" rx="2.5" ry="2.5" style="stroke:#181818;stroke-width:0.5;" width="43" x="3273" y="2212.3281"/><text fill="#000000" font-family="sans-serif" font-size="14" lengthAdjust="spacing" textLength="29" x="3280" y="2232.3232">GPS</text><rect fill="#E2E2F0" height="30.2969" rx="2.5" ry="2.5" style="stroke:#181818;stroke-width:0.5;" width="87" x="3326" y="50"/><text fill="#000000" font-family="sans-serif" font-size="14" lengthAdjust="spacing" textLength="73" x="3333" y="69.9951">Барометр</text><rect fill="#E2E2F0" height="30.2969" rx="2.5" ry="2.5" style="stroke:#181818;stroke-width:0.5;" width="87" x="3326" y="2212.3281"/><text fill="#000000" font-family="sans-serif" font-size="14" lengthAdjust="spacing" textLength="73" x="3333" y="2232.3232">Барометр</text><rect fill="#E2E2F0" height="30.2969" rx="2.5" ry="2.5" style="stroke:#181818;stroke-width:0.5;" width="216" x="3453.5" y="50"/><text fill="#000000" font-family="sans-serif" font-size="14" lengthAdjust="spacing" textLength="202" x="3460.5" y="69.9951">Контроль состояния дрона</text><rect fill="#E2E2F0" height="30.2969" rx="2.5" ry="2.5" style="stroke:#181818;stroke-width:0.5;" width="216" x="3453.5" y="2212.3281"/><text fill="#000000" font-family="sans-serif" font-size="14" lengthAdjust="spacing" textLength="202" x="3460.5" y="2232.3232">Контроль состояния дрона</text><rect fill="#E2E2F0" height="30.2969" rx="2.5" ry="2.5" style="stroke:#181818;stroke-width:0.5;" width="134" x="3788.5" y="50"/><text fill="#000000" font-family="sans-serif" font-size="14" lengthAdjust="spacing" textLength="120" x="3795.5" y="69.9951">Конроль миссии</text><rect fill="#E2E2F0" height="30.2969" rx="2.5" ry="2.5" style="stroke:#181818;stroke-width:0.5;" width="134" x="3788.5" y="2212.3281"/><text fill="#000000" font-family="sans-serif" font-size="14" lengthAdjust="spacing" textLength="120" x="3795.5" y="2232.3232">Конроль миссии</text><rect fill="#E2E2F0" height="30.2969" rx="2.5" ry="2.5" style="stroke:#181818;stroke-width:0.5;" width="246" x="4077.5" y="50"/><text fill="#000000" font-family="sans-serif" font-size="14" lengthAdjust="spacing" textLength="232" x="4084.5" y="69.9951">Управление распрыскивателем</text><rect fill="#E2E2F0" height="30.2969" rx="2.5" ry="2.5" style="stroke:#181818;stroke-width:0.5;" width="246" x="4077.5" y="2212.3281"/><text fill="#000000" font-family="sans-serif" font-size="14" lengthAdjust="spacing" textLength="232" x="4084.5" y="2232.3232">Управление распрыскивателем</text><rect fill="#E2E2F0" height="30.2969" rx="2.5" ry="2.5" style="stroke:#181818;stroke-width:0.5;" width="144" x="4363.5" y="50"/><text fill="#000000" font-family="sans-serif" font-size="14" lengthAdjust="spacing" textLength="130" x="4370.5" y="69.9951">Распрыскиватель</text><rect fill="#E2E2F0" height="30.2969" rx="2.5" ry="2.5" style="stroke:#181818;stroke-width:0.5;" width="144" x="4363.5" y="2212.3281"/><text fill="#000000" font-family="sans-serif" font-size="14" lengthAdjust="spacing" textLength="130" x="4370.5" y="2232.3232">Распрыскиватель</text><rect fill="#E2E2F0" height="30.2969" rx="2.5" ry="2.5" style="stroke:#181818;stroke-width:0.5;" width="68" x="4570.5" y="50"/><text fill="#000000" font-family="sans-serif" font-size="14" lengthAdjust="spacing" textLength="54" x="4577.5" y="69.9951">Камера</text><rect fill="#E2E2F0" height="30.2969" rx="2.5" ry="2.5" style="stroke:#181818;stroke-width:0.5;" width="68" x="4570.5" y="2212.3281"/><text fill="#000000" font-family="sans-serif" font-size="14" lengthAdjust="spacing" textLength="54" x="4577.5" y="2232.3232">Камера</text><rect fill="#E2E2F0" height="30.2969" rx="2.5" ry="2.5" style="stroke:#181818;stroke-width:0.5;" width="173" x="4648.5" y="50"/><text fill="#000000" font-family="sans-serif" font-size="14" lengthAdjust="spacing" textLength="159" x="4655.5" y="69.9951">Отправка сообщений</text><rect fill="#E2E2F0" height="30.2969" rx="2.5" ry="2.5" style="stroke:#181818;stroke-width:0.5;" width="173" x="4648.5" y="2212.3281"/><text fill="#000000" font-family="sans-serif" font-size="14" lengthAdjust="spacing" textLength="159" x="4655.5" y="2232.3232">Отправка сообщений</text><rect fill="#E2E2F0" height="30.2969" rx="2.5" ry="2.5" style="stroke:#181818;stroke-width:0.5;" width="44" x="4831.5" y="50"/><text fill="#000000" font-family="sans-serif" font-size="14" lengthAdjust="spacing" textLength="30" x="4838.5" y="69.9951">ИНС</text><rect fill="#E2E2F0" height="30.2969" rx="2.5" ry="2.5" style="stroke:#181818;stroke-width:0.5;" width="44" x="4831.5" y="2212.3281"/><text fill="#000000" font-family="sans-serif" font-size="14" lengthAdjust="spacing" textLength="30" x="4838.5" y="2232.3232">ИНС</text><rect fill="#E2E2F0" height="30.2969" rx="2.5" ry="2.5" style="stroke:#181818;stroke-width:0.5;" width="156" x="4946.5" y="50"/><text fill="#000000" font-family="sans-serif" font-size="14" lengthAdjust="spacing" textLength="142" x="4953.5" y="69.9951">Комплексирование</text><rect fill="#E2E2F0" height="30.2969" rx="2.5" ry="2.5" style="stroke:#181818;stroke-width:0.5;" width="156" x="4946.5" y="2212.3281"/><text fill="#000000" font-family="sans-serif" font-size="14" lengthAdjust="spacing" textLength="142" x="4953.5" y="2232.3232">Комплексирование</text><polygon fill="#181818" points="3549.5,108.4297,3559.5,112.4297,3549.5,116.4297,3553.5,112.4297" style="stroke:#181818;stroke-width:1.0;"/><line style="stroke:#181818;stroke-width:1.0;" x1="44.5" x2="3555.5" y1="112.4297" y2="112.4297"/><text fill="#000000" font-family="sans-serif" font-size="13" lengthAdjust="spacing" textLength="197" x="51.5" y="107.3638">Включение и инициализация</text><line style="stroke:#181818;stroke-width:1.0;" x1="3561.5" x2="3603.5" y1="141.5625" y2="141.5625"/><line style="stroke:#181818;stroke-width:1.0;" x1="3603.5" x2="3603.5" y1="141.5625" y2="154.5625"/><line style="stroke:#181818;stroke-width:1.0;" x1="3562.5" x2="3603.5" y1="154.5625" y2="154.5625"/><polygon fill="#181818" points="3572.5,150.5625,3562.5,154.5625,3572.5,158.5625,3568.5,154.5625" style="stroke:#181818;stroke-width:1.0;"/><text fill="#000000" font-family="sans-serif" font-size="13" lengthAdjust="spacing" textLength="280" x="3568.5" y="136.4966">Включение проверка состояния батареи</text><polygon fill="#181818" points="5012.5,179.6953,5022.5,183.6953,5012.5,187.6953,5016.5,183.6953" style="stroke:#181818;stroke-width:1.0;"/><line style="stroke:#181818;stroke-width:1.0;" x1="3561.5" x2="5018.5" y1="183.6953" y2="183.6953"/><text fill="#000000" font-family="sans-serif" font-size="13" lengthAdjust="spacing" textLength="190" x="3568.5" y="178.6294">Запрос текущих координат</text><polygon fill="#181818" points="3572.5,208.8281,3562.5,212.8281,3572.5,216.8281,3568.5,212.8281" style="stroke:#181818;stroke-width:1.0;"/><line style="stroke:#181818;stroke-width:1.0;" x1="3566.5" x2="5023.5" y1="212.8281" y2="212.8281"/><text fill="#000000" font-family="sans-serif" font-size="13" lengthAdjust="spacing" textLength="147" x="3578.5" y="207.7622">Текущие координаты</text><polygon fill="#181818" points="3380.5,237.9609,3370.5,241.9609,3380.5,245.9609,3376.5,241.9609" style="stroke:#181818;stroke-width:1.0;"/><line style="stroke:#181818;stroke-width:1.0;" x1="3374.5" x2="3560.5" y1="241.9609" y2="241.9609"/><text fill="#000000" font-family="sans-serif" font-size="13" lengthAdjust="spacing" textLength="168" x="3386.5" y="236.895">Запрос текущей высоты</text><polygon fill="#181818" points="3549.5,267.0938,3559.5,271.0938,3549.5,275.0938,3553.5,271.0938" style="stroke:#181818;stroke-width:1.0;"/><line style="stroke:#181818;stroke-width:1.0;" x1="3369.5" x2="3555.5" y1="271.0938" y2="271.0938"/><text fill="#000000" font-family="sans-serif" font-size="13" lengthAdjust="spacing" textLength="112" x="3376.5" y="266.0278">Текущая высота</text><polygon fill="#181818" points="4723,296.2266,4733,300.2266,4723,304.2266,4727,300.2266" style="stroke:#181818;stroke-width:1.0;"/><line style="stroke:#181818;stroke-width:1.0;" x1="3561.5" x2="4729" y1="300.2266" y2="300.2266"/><text fill="#000000" font-family="sans-serif" font-size="13" lengthAdjust="spacing" textLength="337" x="3568.5" y="295.1606">Отчет о состоянии дрона и его местоположение</text><polygon fill="#181818" points="1829.5,325.3594,1819.5,329.3594,1829.5,333.3594,1825.5,329.3594" style="stroke:#181818;stroke-width:1.0;"/><line style="stroke:#181818;stroke-width:1.0;" x1="1823.5" x2="4734" y1="329.3594" y2="329.3594"/><text fill="#000000" font-family="sans-serif" font-size="13" lengthAdjust="spacing" textLength="337" x="1835.5" y="324.2935">Отчет о состоянии дрона и его местоположение</text><polygon fill="#181818" points="1297.5,354.4922,1287.5,358.4922,1297.5,362.4922,1293.5,358.4922" style="stroke:#181818;stroke-width:1.0;"/><line style="stroke:#181818;stroke-width:1.0;" x1="1291.5" x2="1817.5" y1="358.4922" y2="358.4922"/><text fill="#000000" font-family="sans-serif" font-size="13" lengthAdjust="spacing" textLength="508" x="1303.5" y="353.4263">Шифрование и подпись отчета о состоянии дрона и его местоположение</text><polygon fill="#181818" points="936.5,383.625,926.5,387.625,936.5,391.625,932.5,387.625" style="stroke:#181818;stroke-width:1.0;"/><line style="stroke:#181818;stroke-width:1.0;" x1="930.5" x2="1285.5" y1="387.625" y2="387.625"/><text fill="#000000" font-family="sans-serif" font-size="13" lengthAdjust="spacing" textLength="337" x="942.5" y="382.5591">Отчет о состоянии дрона и его меcтоположение</text><polygon fill="#181818" points="188.5,412.7578,178.5,416.7578,188.5,420.7578,184.5,416.7578" style="stroke:#181818;stroke-width:1.0;"/><line style="stroke:#181818;stroke-width:1.0;" x1="182.5" x2="1285.5" y1="416.7578" y2="416.7578"/><text fill="#000000" font-family="sans-serif" font-size="13" lengthAdjust="spacing" textLength="337" x="194.5" y="411.6919">Отчет о состоянии дрона и его меcтоположение</text><polygon fill="#181818" points="1274.5,441.8906,1284.5,445.8906,1274.5,449.8906,1278.5,445.8906" style="stroke:#181818;stroke-width:1.0;"/><line style="stroke:#181818;stroke-width:1.0;" x1="925.5" x2="1280.5" y1="445.8906" y2="445.8906"/><text fill="#000000" font-family="sans-serif" font-size="13" lengthAdjust="spacing" textLength="93" x="932.5" y="440.8247">Запуск дрона</text><polygon fill="#181818" points="188.5,471.0234,178.5,475.0234,188.5,479.0234,184.5,475.0234" style="stroke:#181818;stroke-width:1.0;"/><line style="stroke:#181818;stroke-width:1.0;" x1="182.5" x2="1285.5" y1="475.0234" y2="475.0234"/><text fill="#000000" font-family="sans-serif" font-size="13" lengthAdjust="spacing" textLength="185" x="194.5" y="469.9575">Запрос полетного задания</text><polygon fill="#181818" points="1274.5,500.1563,1284.5,504.1563,1274.5,508.1563,1278.5,504.1563" style="stroke:#181818;stroke-width:1.0;"/><line style="stroke:#181818;stroke-width:1.0;" x1="177.5" x2="1280.5" y1="504.1563" y2="504.1563"/><text fill="#000000" font-family="sans-serif" font-size="13" lengthAdjust="spacing" textLength="127" x="184.5" y="499.0903">Полетное задание</text><polygon fill="#181818" points="1806.5,529.2891,1816.5,533.2891,1806.5,537.2891,1810.5,533.2891" style="stroke:#181818;stroke-width:1.0;"/><line style="stroke:#181818;stroke-width:1.0;" x1="1286.5" x2="1812.5" y1="533.2891" y2="533.2891"/><text fill="#000000" font-family="sans-serif" font-size="13" lengthAdjust="spacing" textLength="387" x="1293.5" y="528.2231">Расшифрование и проверка подписи полетного задания</text><polygon fill="#181818" points="1957.5,558.4219,1967.5,562.4219,1957.5,566.4219,1961.5,562.4219" style="stroke:#181818;stroke-width:1.0;"/><line style="stroke:#181818;stroke-width:1.0;" x1="1818.5" x2="1963.5" y1="562.4219" y2="562.4219"/><text fill="#000000" font-family="sans-serif" font-size="13" lengthAdjust="spacing" textLength="127" x="1825.5" y="557.356">Полетное задание</text><polygon fill="#181818" points="3843.5,587.5547,3853.5,591.5547,3843.5,595.5547,3847.5,591.5547" style="stroke:#181818;stroke-width:1.0;"/><line style="stroke:#181818;stroke-width:1.0;" x1="1818.5" x2="3849.5" y1="591.5547" y2="591.5547"/><text fill="#000000" font-family="sans-serif" font-size="13" lengthAdjust="spacing" textLength="127" x="1825.5" y="586.4888">Полетное задание</text><polygon fill="#181818" points="2720.5,616.6875,2730.5,620.6875,2720.5,624.6875,2724.5,620.6875" style="stroke:#181818;stroke-width:1.0;"/><line style="stroke:#181818;stroke-width:1.0;" x1="1818.5" x2="2726.5" y1="620.6875" y2="620.6875"/><text fill="#000000" font-family="sans-serif" font-size="13" lengthAdjust="spacing" textLength="127" x="1825.5" y="615.6216">Полетное задание</text><path d="M84,659.8203 L455,659.8203 L455,666.9531 L445,676.9531 L84,676.9531 L84,659.8203 " fill="#EEEEEE" style="stroke:#000000;stroke-width:1.5;"/><rect fill="none" height="408.8594" style="stroke:#000000;stroke-width:1.5;" width="5088.5" x="84" y="659.8203"/><text fill="#000000" font-family="sans-serif" font-size="13" font-weight="bold" lengthAdjust="spacing" textLength="326" x="99" y="672.8872">Выполняется на протяжении всего полета</text><polygon fill="#181818" points="5012.5,694.0859,5022.5,698.0859,5012.5,702.0859,5016.5,698.0859" style="stroke:#181818;stroke-width:1.0;"/><line style="stroke:#181818;stroke-width:1.0;" x1="3294.5" x2="5018.5" y1="698.0859" y2="698.0859"/><text fill="#000000" font-family="sans-serif" font-size="13" lengthAdjust="spacing" textLength="147" x="3301.5" y="693.02">Текущие координаты</text><polygon fill="#181818" points="5012.5,723.2188,5022.5,727.2188,5012.5,731.2188,5016.5,727.2188" style="stroke:#181818;stroke-width:1.0;"/><line style="stroke:#181818;stroke-width:1.0;" x1="4853.5" x2="5018.5" y1="727.2188" y2="727.2188"/><text fill="#000000" font-family="sans-serif" font-size="13" lengthAdjust="spacing" textLength="147" x="4860.5" y="722.1528">Текущие координаты</text><line style="stroke:#181818;stroke-width:1.0;" x1="5024.5" x2="5066.5" y1="756.3516" y2="756.3516"/><line style="stroke:#181818;stroke-width:1.0;" x1="5066.5" x2="5066.5" y1="756.3516" y2="769.3516"/><line style="stroke:#181818;stroke-width:1.0;" x1="5025.5" x2="5066.5" y1="769.3516" y2="769.3516"/><polygon fill="#181818" points="5035.5,765.3516,5025.5,769.3516,5035.5,773.3516,5031.5,769.3516" style="stroke:#181818;stroke-width:1.0;"/><text fill="#000000" font-family="sans-serif" font-size="13" lengthAdjust="spacing" textLength="129" x="5031.5" y="751.2856">Комплексирование</text><polygon fill="#181818" points="2743.5,794.4844,2733.5,798.4844,2743.5,802.4844,2739.5,798.4844" style="stroke:#181818;stroke-width:1.0;"/><line style="stroke:#181818;stroke-width:1.0;" x1="2737.5" x2="5023.5" y1="798.4844" y2="798.4844"/><text fill="#000000" font-family="sans-serif" font-size="13" lengthAdjust="spacing" textLength="147" x="2749.5" y="793.4185">Текущие координаты</text><polygon fill="#181818" points="3866.5,823.6172,3856.5,827.6172,3866.5,831.6172,3862.5,827.6172" style="stroke:#181818;stroke-width:1.0;"/><line style="stroke:#181818;stroke-width:1.0;" x1="3860.5" x2="5023.5" y1="827.6172" y2="827.6172"/><text fill="#000000" font-family="sans-serif" font-size="13" lengthAdjust="spacing" textLength="147" x="3872.5" y="822.5513">Текущие координаты</text><polygon fill="#181818" points="3572.5,852.75,3562.5,856.75,3572.5,860.75,3568.5,856.75" style="stroke:#181818;stroke-width:1.0;"/><line style="stroke:#181818;stroke-width:1.0;" x1="3566.5" x2="5023.5" y1="856.75" y2="856.75"/><text fill="#000000" font-family="sans-serif" font-size="13" lengthAdjust="spacing" textLength="147" x="3578.5" y="851.6841">Текущие координаты</text><polygon fill="#181818" points="3549.5,881.8828,3559.5,885.8828,3549.5,889.8828,3553.5,885.8828" style="stroke:#181818;stroke-width:1.0;"/><line style="stroke:#181818;stroke-width:1.0;" x1="3369.5" x2="3555.5" y1="885.8828" y2="885.8828"/><text fill="#000000" font-family="sans-serif" font-size="13" lengthAdjust="spacing" textLength="112" x="3376.5" y="880.8169">Текущая высота</text><polygon fill="#181818" points="2743.5,911.0156,2733.5,915.0156,2743.5,919.0156,2739.5,915.0156" style="stroke:#181818;stroke-width:1.0;"/><line style="stroke:#181818;stroke-width:1.0;" x1="2737.5" x2="3368.5" y1="915.0156" y2="915.0156"/><text fill="#000000" font-family="sans-serif" font-size="13" lengthAdjust="spacing" textLength="112" x="2749.5" y="909.9497">Текущая высота</text><polygon fill="#181818" points="4723,940.1484,4733,944.1484,4723,948.1484,4727,944.1484" style="stroke:#181818;stroke-width:1.0;"/><line style="stroke:#181818;stroke-width:1.0;" x1="3561.5" x2="4729" y1="944.1484" y2="944.1484"/><text fill="#000000" font-family="sans-serif" font-size="13" lengthAdjust="spacing" textLength="425" x="3568.5" y="939.0825">Формировние о отправка отчета о текущем состоянии дрона</text><polygon fill="#181818" points="1829.5,969.2813,1819.5,973.2813,1829.5,977.2813,1825.5,973.2813" style="stroke:#181818;stroke-width:1.0;"/><line style="stroke:#181818;stroke-width:1.0;" x1="1823.5" x2="4734" y1="973.2813" y2="973.2813"/><text fill="#000000" font-family="sans-serif" font-size="13" lengthAdjust="spacing" textLength="218" x="1835.5" y="968.2153">Подготовка отчета к отправке</text><polygon fill="#181818" points="1297.5,998.4141,1287.5,1002.4141,1297.5,1006.4141,1293.5,1002.4141" style="stroke:#181818;stroke-width:1.0;"/><line style="stroke:#181818;stroke-width:1.0;" x1="1291.5" x2="1817.5" y1="1002.4141" y2="1002.4141"/><text fill="#000000" font-family="sans-serif" font-size="13" lengthAdjust="spacing" textLength="215" x="1303.5" y="997.3481">Шифрование и подпись отчета</text><polygon fill="#181818" points="936.5,1027.5469,926.5,1031.5469,936.5,1035.5469,932.5,1031.5469" style="stroke:#181818;stroke-width:1.0;"/><line style="stroke:#181818;stroke-width:1.0;" x1="930.5" x2="1285.5" y1="1031.5469" y2="1031.5469"/><text fill="#000000" font-family="sans-serif" font-size="13" lengthAdjust="spacing" textLength="337" x="942.5" y="1026.481">Отчет о состоянии дрона и его меcтоположение</text><polygon fill="#181818" points="188.5,1056.6797,178.5,1060.6797,188.5,1064.6797,184.5,1060.6797" style="stroke:#181818;stroke-width:1.0;"/><line style="stroke:#181818;stroke-width:1.0;" x1="182.5" x2="1285.5" y1="1060.6797" y2="1060.6797"/><text fill="#000000" font-family="sans-serif" font-size="13" lengthAdjust="spacing" textLength="337" x="194.5" y="1055.6138">Отчет о состоянии дрона и его меcтоположение</text><polygon fill="#181818" points="2184.5,1092.8125,2194.5,1096.8125,2184.5,1100.8125,2188.5,1096.8125" style="stroke:#181818;stroke-width:1.0;"/><line style="stroke:#181818;stroke-width:1.0;" x1="1969.5" x2="2190.5" y1="1096.8125" y2="1096.8125"/><text fill="#000000" font-family="sans-serif" font-size="13" lengthAdjust="spacing" textLength="203" x="1976.5" y="1091.7466">Координаты точек маршрута</text><line style="stroke:#181818;stroke-width:1.0;" x1="2196.5" x2="2238.5" y1="1125.9453" y2="1125.9453"/><line style="stroke:#181818;stroke-width:1.0;" x1="2238.5" x2="2238.5" y1="1125.9453" y2="1138.9453"/><line style="stroke:#181818;stroke-width:1.0;" x1="2197.5" x2="2238.5" y1="1138.9453" y2="1138.9453"/><polygon fill="#181818" points="2207.5,1134.9453,2197.5,1138.9453,2207.5,1142.9453,2203.5,1138.9453" style="stroke:#181818;stroke-width:1.0;"/><text fill="#000000" font-family="sans-serif" font-size="13" lengthAdjust="spacing" textLength="522" x="2203.5" y="1120.8794">Вычисление раекториии движение дрона и инструкции для сервоприводов</text><polygon fill="#181818" points="2720.5,1164.0781,2730.5,1168.0781,2720.5,1172.0781,2724.5,1168.0781" style="stroke:#181818;stroke-width:1.0;"/><line style="stroke:#181818;stroke-width:1.0;" x1="2196.5" x2="2726.5" y1="1168.0781" y2="1168.0781"/><text fill="#000000" font-family="sans-serif" font-size="13" lengthAdjust="spacing" textLength="411" x="2203.5" y="1163.0122">Вычисленная траектория и инструкция для сервоприводов</text><line style="stroke:#181818;stroke-width:1.0;" x1="2732.5" x2="2774.5" y1="1197.2109" y2="1197.2109"/><line style="stroke:#181818;stroke-width:1.0;" x1="2774.5" x2="2774.5" y1="1197.2109" y2="1210.2109"/><line style="stroke:#181818;stroke-width:1.0;" x1="2733.5" x2="2774.5" y1="1210.2109" y2="1210.2109"/><polygon fill="#181818" points="2743.5,1206.2109,2733.5,1210.2109,2743.5,1214.2109,2739.5,1210.2109" style="stroke:#181818;stroke-width:1.0;"/><text fill="#000000" font-family="sans-serif" font-size="13" lengthAdjust="spacing" textLength="226" x="2739.5" y="1192.145">Проверка вычисленных значений</text><polygon fill="#181818" points="3067.5,1235.3438,3077.5,1239.3438,3067.5,1243.3438,3071.5,1239.3438" style="stroke:#181818;stroke-width:1.0;"/><line style="stroke:#181818;stroke-width:1.0;" x1="2732.5" x2="3073.5" y1="1239.3438" y2="1239.3438"/><text fill="#000000" font-family="sans-serif" font-size="13" lengthAdjust="spacing" textLength="323" x="2739.5" y="1234.2778">Передача управляющих команд для движения</text><line style="stroke:#181818;stroke-width:1.0;" x1="3079.5" x2="3121.5" y1="1268.4766" y2="1268.4766"/><line style="stroke:#181818;stroke-width:1.0;" x1="3121.5" x2="3121.5" y1="1268.4766" y2="1281.4766"/><line style="stroke:#181818;stroke-width:1.0;" x1="3080.5" x2="3121.5" y1="1281.4766" y2="1281.4766"/><polygon fill="#181818" points="3090.5,1277.4766,3080.5,1281.4766,3090.5,1285.4766,3086.5,1281.4766" style="stroke:#181818;stroke-width:1.0;"/><text fill="#000000" font-family="sans-serif" font-size="13" lengthAdjust="spacing" textLength="182" x="3086.5" y="1263.4106">Осуществление движения</text><line style="stroke:#181818;stroke-width:1.0;" x1="3855.5" x2="3897.5" y1="1310.6094" y2="1310.6094"/><line style="stroke:#181818;stroke-width:1.0;" x1="3897.5" x2="3897.5" y1="1310.6094" y2="1323.6094"/><line style="stroke:#181818;stroke-width:1.0;" x1="3856.5" x2="3897.5" y1="1323.6094" y2="1323.6094"/><polygon fill="#181818" points="3866.5,1319.6094,3856.5,1323.6094,3866.5,1327.6094,3862.5,1323.6094" style="stroke:#181818;stroke-width:1.0;"/><text fill="#000000" font-family="sans-serif" font-size="13" lengthAdjust="spacing" textLength="331" x="3862.5" y="1305.5435">Проверка достижения координат начала работ</text><path d="M84,1338.6094 L274,1338.6094 L274,1345.7422 L264,1355.7422 L84,1355.7422 L84,1338.6094 " fill="#EEEEEE" style="stroke:#000000;stroke-width:1.5;"/><rect fill="none" height="638.7891" style="stroke:#000000;stroke-width:1.5;" width="4747.5" x="84" y="1338.6094"/><text fill="#000000" font-family="sans-serif" font-size="13" font-weight="bold" lengthAdjust="spacing" textLength="145" x="99" y="1351.6763">Выполнение работ</text><polygon fill="#181818" points="2743.5,1372.875,2733.5,1376.875,2743.5,1380.875,2739.5,1376.875" style="stroke:#181818;stroke-width:1.0;"/><line style="stroke:#181818;stroke-width:1.0;" x1="2737.5" x2="3854.5" y1="1376.875" y2="1376.875"/><text fill="#000000" font-family="sans-serif" font-size="13" lengthAdjust="spacing" textLength="511" x="2749.5" y="1371.8091">Запрос на зависание дрона в воздухе дрона для валидации района работ</text><polygon fill="#181818" points="3067.5,1402.0078,3077.5,1406.0078,3067.5,1410.0078,3071.5,1406.0078" style="stroke:#181818;stroke-width:1.0;"/><line style="stroke:#181818;stroke-width:1.0;" x1="2732.5" x2="3073.5" y1="1406.0078" y2="1406.0078"/><text fill="#000000" font-family="sans-serif" font-size="13" lengthAdjust="spacing" textLength="235" x="2739.5" y="1400.9419">Зависание дрона в воздухе дрона</text><polygon fill="#181818" points="4592.5,1431.1406,4602.5,1435.1406,4592.5,1439.1406,4596.5,1435.1406" style="stroke:#181818;stroke-width:1.0;"/><line style="stroke:#181818;stroke-width:1.0;" x1="3855.5" x2="4598.5" y1="1435.1406" y2="1435.1406"/><text fill="#000000" font-family="sans-serif" font-size="13" lengthAdjust="spacing" textLength="311" x="3862.5" y="1430.0747">Запрос фото-видео съемки местности работ</text><polygon fill="#181818" points="3866.5,1460.2734,3856.5,1464.2734,3866.5,1468.2734,3862.5,1464.2734" style="stroke:#181818;stroke-width:1.0;"/><line style="stroke:#181818;stroke-width:1.0;" x1="3860.5" x2="4603.5" y1="1464.2734" y2="1464.2734"/><text fill="#000000" font-family="sans-serif" font-size="13" lengthAdjust="spacing" textLength="340" x="3872.5" y="1459.2075">Фото-видео материал с места проведения работ</text><polygon fill="#181818" points="4723,1489.4063,4733,1493.4063,4723,1497.4063,4727,1493.4063" style="stroke:#181818;stroke-width:1.0;"/><line style="stroke:#181818;stroke-width:1.0;" x1="3855.5" x2="4729" y1="1493.4063" y2="1493.4063"/><text fill="#000000" font-family="sans-serif" font-size="13" lengthAdjust="spacing" textLength="340" x="3862.5" y="1488.3403">Фото-видео материал с места проведения работ</text><polygon fill="#181818" points="1829.5,1518.5391,1819.5,1522.5391,1829.5,1526.5391,1825.5,1522.5391" style="stroke:#181818;stroke-width:1.0;"/><line style="stroke:#181818;stroke-width:1.0;" x1="1823.5" x2="4734" y1="1522.5391" y2="1522.5391"/><text fill="#000000" font-family="sans-serif" font-size="13" lengthAdjust="spacing" textLength="329" x="1835.5" y="1517.4731">Подготовка фото-видео материала к отправке</text><polygon fill="#181818" points="1297.5,1547.6719,1287.5,1551.6719,1297.5,1555.6719,1293.5,1551.6719" style="stroke:#181818;stroke-width:1.0;"/><line style="stroke:#181818;stroke-width:1.0;" x1="1291.5" x2="1817.5" y1="1551.6719" y2="1551.6719"/><text fill="#000000" font-family="sans-serif" font-size="13" lengthAdjust="spacing" textLength="326" x="1303.5" y="1546.606">Шифрование и подпись фото-видео материала</text><polygon fill="#181818" points="188.5,1576.8047,178.5,1580.8047,188.5,1584.8047,184.5,1580.8047" style="stroke:#181818;stroke-width:1.0;"/><line style="stroke:#181818;stroke-width:1.0;" x1="182.5" x2="1285.5" y1="1580.8047" y2="1580.8047"/><text fill="#000000" font-family="sans-serif" font-size="13" lengthAdjust="spacing" textLength="340" x="194.5" y="1575.7388">фото-видео материал с места проведения работ</text><line style="stroke:#181818;stroke-width:1.0;" x1="177.5" x2="219.5" y1="1609.9375" y2="1609.9375"/><line style="stroke:#181818;stroke-width:1.0;" x1="219.5" x2="219.5" y1="1609.9375" y2="1622.9375"/><line style="stroke:#181818;stroke-width:1.0;" x1="178.5" x2="219.5" y1="1622.9375" y2="1622.9375"/><polygon fill="#181818" points="188.5,1618.9375,178.5,1622.9375,188.5,1626.9375,184.5,1622.9375" style="stroke:#181818;stroke-width:1.0;"/><text fill="#000000" font-family="sans-serif" font-size="13" lengthAdjust="spacing" textLength="734" x="184.5" y="1604.8716">Анализ фото-видео материалов на предмет нахождения посторонних объектов в зоне проведения работ</text><polygon fill="#181818" points="1274.5,1648.0703,1284.5,1652.0703,1274.5,1656.0703,1278.5,1652.0703" style="stroke:#181818;stroke-width:1.0;"/><line style="stroke:#181818;stroke-width:1.0;" x1="177.5" x2="1280.5" y1="1652.0703" y2="1652.0703"/><text fill="#000000" font-family="sans-serif" font-size="13" lengthAdjust="spacing" textLength="233" x="184.5" y="1647.0044">Разрешение на проведение работ</text><polygon fill="#181818" points="1806.5,1677.2031,1816.5,1681.2031,1806.5,1685.2031,1810.5,1681.2031" style="stroke:#181818;stroke-width:1.0;"/><line style="stroke:#181818;stroke-width:1.0;" x1="1286.5" x2="1812.5" y1="1681.2031" y2="1681.2031"/><text fill="#000000" font-family="sans-serif" font-size="13" lengthAdjust="spacing" textLength="233" x="1293.5" y="1676.1372">Разрешение на проведение работ</text><polygon fill="#181818" points="3843.5,1706.3359,3853.5,1710.3359,3843.5,1714.3359,3847.5,1710.3359" style="stroke:#181818;stroke-width:1.0;"/><line style="stroke:#181818;stroke-width:1.0;" x1="1818.5" x2="3849.5" y1="1710.3359" y2="1710.3359"/><text fill="#000000" font-family="sans-serif" font-size="13" lengthAdjust="spacing" textLength="233" x="1825.5" y="1705.27">Разрешение на проведение работ</text><polygon fill="#181818" points="2743.5,1735.4688,2733.5,1739.4688,2743.5,1743.4688,2739.5,1739.4688" style="stroke:#181818;stroke-width:1.0;"/><line style="stroke:#181818;stroke-width:1.0;" x1="2737.5" x2="3854.5" y1="1739.4688" y2="1739.4688"/><text fill="#000000" font-family="sans-serif" font-size="13" lengthAdjust="spacing" textLength="240" x="2749.5" y="1734.4028">Запрос на продолжение движения</text><polygon fill="#181818" points="3067.5,1764.6016,3077.5,1768.6016,3067.5,1772.6016,3071.5,1768.6016" style="stroke:#181818;stroke-width:1.0;"/><line style="stroke:#181818;stroke-width:1.0;" x1="2732.5" x2="3073.5" y1="1768.6016" y2="1768.6016"/><text fill="#000000" font-family="sans-serif" font-size="13" lengthAdjust="spacing" textLength="260" x="2739.5" y="1763.5356">Продолжение движения по маршруту</text><polygon fill="#181818" points="4188.5,1793.7344,4198.5,1797.7344,4188.5,1801.7344,4192.5,1797.7344" style="stroke:#181818;stroke-width:1.0;"/><line style="stroke:#181818;stroke-width:1.0;" x1="3855.5" x2="4194.5" y1="1797.7344" y2="1797.7344"/><text fill="#000000" font-family="sans-serif" font-size="13" lengthAdjust="spacing" textLength="201" x="3862.5" y="1792.6685">Включение распрыскивателя</text><polygon fill="#181818" points="4423.5,1822.8672,4433.5,1826.8672,4423.5,1830.8672,4427.5,1826.8672" style="stroke:#181818;stroke-width:1.0;"/><line style="stroke:#181818;stroke-width:1.0;" x1="4200.5" x2="4429.5" y1="1826.8672" y2="1826.8672"/><text fill="#000000" font-family="sans-serif" font-size="13" lengthAdjust="spacing" textLength="201" x="4207.5" y="1821.8013">Включение распрыскивателя</text><line style="stroke:#181818;stroke-width:1.0;" x1="4435.5" x2="4477.5" y1="1856" y2="1856"/><line style="stroke:#181818;stroke-width:1.0;" x1="4477.5" x2="4477.5" y1="1856" y2="1869"/><line style="stroke:#181818;stroke-width:1.0;" x1="4436.5" x2="4477.5" y1="1869" y2="1869"/><polygon fill="#181818" points="4446.5,1865,4436.5,1869,4446.5,1873,4442.5,1869" style="stroke:#181818;stroke-width:1.0;"/><text fill="#000000" font-family="sans-serif" font-size="13" lengthAdjust="spacing" textLength="155" x="4442.5" y="1850.9341">Распрыскивание смеси</text><line style="stroke:#181818;stroke-width:1.0;" x1="3855.5" x2="3897.5" y1="1898.1328" y2="1898.1328"/><line style="stroke:#181818;stroke-width:1.0;" x1="3897.5" x2="3897.5" y1="1898.1328" y2="1911.1328"/><line style="stroke:#181818;stroke-width:1.0;" x1="3856.5" x2="3897.5" y1="1911.1328" y2="1911.1328"/><polygon fill="#181818" points="3866.5,1907.1328,3856.5,1911.1328,3866.5,1915.1328,3862.5,1911.1328" style="stroke:#181818;stroke-width:1.0;"/><text fill="#000000" font-family="sans-serif" font-size="13" lengthAdjust="spacing" textLength="294" x="3862.5" y="1893.0669">Достигнуты координаты окончания работ</text><polygon fill="#181818" points="4188.5,1936.2656,4198.5,1940.2656,4188.5,1944.2656,4192.5,1940.2656" style="stroke:#181818;stroke-width:1.0;"/><line style="stroke:#181818;stroke-width:1.0;" x1="3855.5" x2="4194.5" y1="1940.2656" y2="1940.2656"/><text fill="#000000" font-family="sans-serif" font-size="13" lengthAdjust="spacing" textLength="211" x="3862.5" y="1935.1997">Выключение распрыскивателя</text><polygon fill="#181818" points="4423.5,1965.3984,4433.5,1969.3984,4423.5,1973.3984,4427.5,1969.3984" style="stroke:#181818;stroke-width:1.0;"/><line style="stroke:#181818;stroke-width:1.0;" x1="4200.5" x2="4429.5" y1="1969.3984" y2="1969.3984"/><text fill="#000000" font-family="sans-serif" font-size="13" lengthAdjust="spacing" textLength="211" x="4207.5" y="1964.3325">Выключение распрыскивателя</text><path d="M84,1991.3984 L283,1991.3984 L283,1998.5313 L273,2008.5313 L84,2008.5313 L84,1991.3984 " fill="#EEEEEE" style="stroke:#000000;stroke-width:1.5;"/><rect fill="none" height="204.9297" style="stroke:#000000;stroke-width:1.5;" width="4747.5" x="84" y="1991.3984"/><text fill="#000000" font-family="sans-serif" font-size="13" font-weight="bold" lengthAdjust="spacing" textLength="154" x="99" y="2004.4653">Завершение миссии</text><line style="stroke:#181818;stroke-width:1.0;" x1="3079.5" x2="3121.5" y1="2029.6641" y2="2029.6641"/><line style="stroke:#181818;stroke-width:1.0;" x1="3121.5" x2="3121.5" y1="2029.6641" y2="2042.6641"/><line style="stroke:#181818;stroke-width:1.0;" x1="3080.5" x2="3121.5" y1="2042.6641" y2="2042.6641"/><polygon fill="#181818" points="3090.5,2038.6641,3080.5,2042.6641,3090.5,2046.6641,3086.5,2042.6641" style="stroke:#181818;stroke-width:1.0;"/><text fill="#000000" font-family="sans-serif" font-size="13" lengthAdjust="spacing" textLength="201" x="3086.5" y="2024.5981">Возвращение в точку старта</text><polygon fill="#181818" points="4723,2067.7969,4733,2071.7969,4723,2075.7969,4727,2071.7969" style="stroke:#181818;stroke-width:1.0;"/><line style="stroke:#181818;stroke-width:1.0;" x1="3855.5" x2="4729" y1="2071.7969" y2="2071.7969"/><text fill="#000000" font-family="sans-serif" font-size="13" lengthAdjust="spacing" textLength="100" x="3862.5" y="2066.731">Отчет о мисии</text><polygon fill="#181818" points="1829.5,2096.9297,1819.5,2100.9297,1829.5,2104.9297,1825.5,2100.9297" style="stroke:#181818;stroke-width:1.0;"/><line style="stroke:#181818;stroke-width:1.0;" x1="1823.5" x2="4734" y1="2100.9297" y2="2100.9297"/><text fill="#000000" font-family="sans-serif" font-size="13" lengthAdjust="spacing" textLength="100" x="1835.5" y="2095.8638">Отчет о мисии</text><polygon fill="#181818" points="1297.5,2126.0625,1287.5,2130.0625,1297.5,2134.0625,1293.5,2130.0625" style="stroke:#181818;stroke-width:1.0;"/><line style="stroke:#181818;stroke-width:1.0;" x1="1291.5" x2="1817.5" y1="2130.0625" y2="2130.0625"/><text fill="#000000" font-family="sans-serif" font-size="13" lengthAdjust="spacing" textLength="100" x="1303.5" y="2124.9966">Отчет о мисии</text><polygon fill="#181818" points="936.5,2155.1953,926.5,2159.1953,936.5,2163.1953,932.5,2159.1953" style="stroke:#181818;stroke-width:1.0;"/><line style="stroke:#181818;stroke-width:1.0;" x1="930.5" x2="1285.5" y1="2159.1953" y2="2159.1953"/><text fill="#000000" font-family="sans-serif" font-size="13" lengthAdjust="spacing" textLength="100" x="942.5" y="2154.1294">Отчет о мисии</text><polygon fill="#181818" points="188.5,2184.3281,178.5,2188.3281,188.5,2192.3281,184.5,2188.3281" style="stroke:#181818;stroke-width:1.0;"/><line style="stroke:#181818;stroke-width:1.0;" x1="182.5" x2="1285.5" y1="2188.3281" y2="2188.3281"/><text fill="#000000" font-family="sans-serif" font-size="13" lengthAdjust="spacing" textLength="100" x="194.5" y="2183.2622">Отчет о мисии</text><!--MD5=[5c1a38fe6e6c48137fc408f3d3195a6b]
@startuml
actor "Оператор" as Operator
participant "Управляющий центр" as Center
participant "Мобильное приложение" as App 
participant "Модуль связи" as Communication
participant "Шифрование" as Crypto
participant "Оркестратор задач" as Manager
participant "Расчет перемещения" as Calculation
participant "Ограничитель" as Limiter
participant "Приводы" as Servo
participant "GPS" as GPS
participant "Барометр" as Barometer
participant "Контроль состояния дрона" as DroneStateControl
participant "Конроль миссии" as Mission
participant "Управление распрыскивателем" as SprayControl 
participant "Распрыскиватель" as Spray
participant "Камера" as Camera 
participant "Отправка сообщений" as Sender
participant "ИНС" as Internal
participant "Комплексирование" as Complex

Operator -> DroneStateControl : Включение и инициализация
DroneStateControl -> DroneStateControl : Включение проверка состояния батареи
DroneStateControl -> Complex : Запрос текущих координат
Complex -> DroneStateControl : Текущие координаты
DroneStateControl -> Barometer : Запрос текущей высоты
Barometer -> DroneStateControl : Текущая высота
DroneStateControl -> Sender : Отчет о состоянии дрона и его местоположение
Sender -> Crypto : Отчет о состоянии дрона и его местоположение
Crypto -> Communication : Шифрование и подпись отчета о состоянии дрона и его местоположение
Communication -> App : Отчет о состоянии дрона и его меcтоположение
Communication -> Center : Отчет о состоянии дрона и его меcтоположение


App -> Communication : Запуск дрона
Communication -> Center : Запрос полетного задания
Center -> Communication : Полетное задание 
Communication -> Crypto : Расшифрование и проверка подписи полетного задания
Crypto -> Manager : Полетное задание
Crypto -> Mission : Полетное задание
Crypto -> Limiter : Полетное задание

group Выполнение полетного задания
group Выполняется на протяжении всего полета
GPS -> Complex : Текущие координаты
Internal -> Complex : Текущие координаты
Complex -> Complex : Комплексирование 
Complex -> Limiter : Текущие координаты
Complex -> Mission : Текущие координаты
Complex -> DroneStateControl : Текущие координаты
Barometer -> DroneStateControl : Текущая высота
Barometer -> Limiter : Текущая высота
DroneStateControl -> Sender : Формировние о отправка отчета о текущем состоянии дрона
Sender -> Crypto : Подготовка отчета к отправке
Crypto -> Communication : Шифрование и подпись отчета
Communication -> App : Отчет о состоянии дрона и его меcтоположение
Communication -> Center : Отчет о состоянии дрона и его меcтоположение
end

Manager -> Calculation : Координаты точек маршрута
Calculation -> Calculation : Вычисление раекториии движение дрона и инструкции для сервоприводов
Calculation -> Limiter : Вычисленная траектория и инструкция для сервоприводов
Limiter -> Limiter : Проверка вычисленных значений
Limiter -> Servo : Передача управляющих команд для движения
Servo -> Servo : Осуществление движения
Mission -> Mission : Проверка достижения координат начала работ

group Выполнение работ
Mission -> Limiter : Запрос на зависание дрона в воздухе дрона для валидации района работ
Limiter -> Servo : Зависание дрона в воздухе дрона
Mission -> Camera : Запрос фото-видео съемки местности работ
Camera -> Mission : Фото-видео материал с места проведения работ
Mission -> Sender : Фото-видео материал с места проведения работ
Sender -> Crypto : Подготовка фото-видео материала к отправке
Crypto -> Communication : Шифрование и подпись фото-видео материала
Communication -> Center : фото-видео материал с места проведения работ
Center -> Center : Анализ фото-видео материалов на предмет нахождения посторонних объектов в зоне проведения работ
Center -> Communication : Разрешение на проведение работ
Communication -> Crypto : Разрешение на проведение работ
Crypto -> Mission : Разрешение на проведение работ
Mission -> Limiter : Запрос на продолжение движения
Limiter -> Servo : Продолжение движения по маршруту
Mission -> SprayControl : Включение распрыскивателя
SprayControl -> Spray : Включение распрыскивателя
Spray -> Spray : Распрыскивание смеси
Mission -> Mission : Достигнуты координаты окончания работ
Mission -> SprayControl : Выключение распрыскивателя
SprayControl -> Spray : Выключение распрыскивателя
end
group Завершение миссии
Servo -> Servo : Возвращение в точку старта
Mission -> Sender : Отчет о мисии
Sender -> Crypto : Отчет о мисии
Crypto -> Communication : Отчет о мисии
Communication -> App : Отчет о мисии
Communication -> Center : Отчет о мисии
end
@enduml

PlantUML version 1.2022.7(Mon Aug 22 17:01:30 UTC 2022)
(GPL source distribution)
Java Runtime: OpenJDK Runtime Environment
JVM: OpenJDK 64-Bit Server VM
Default Encoding: UTF-8
Language: en
Country: null
--></g></svg>